

Release info:

General
Format : Matroska
Format version : Version 2
File size : 691 MiB
Duration : 1h 46mn
Overall bit rate mode : Variable
Overall bit rate : 907 Kbps

Video
ID : 1
Format : MPEG-4 Visual
Format profile : Advanced Simple@L5
Format settings, BVOP : Yes
Format settings, QPel : No
Format settings, GMC : No warppoints
Format settings, Matrix : Default (MPEG)
Codec ID : V_MS/VFW/FOURCC / XVID
Codec ID/Hint : XviD
Duration : 1h 46mn
Bit rate : 761 Kbps
Width : 640 pixels
Height : 272 pixels
Display aspect ratio : 2.35:1
Frame rate mode : Constant
Frame rate : 23.976 fps
Color space : YUV
Chroma subsampling : 4:2:0
Bit depth : 8 bits
Scan type : Progressive
Compression mode : Lossy
Bits/(Pixel*Frame) : 0.182
Stream size : 579 MiB (84%)
Writing library : XviD 64
Language : English
Default : Yes
Forced : No

Audio
ID : 2
Format : MPEG Audio
Format version : Version 1
Format profile : Layer 3
Mode : Joint stereo
Mode extension : MS Stereo
Muxing mode : Header stripping
Codec ID : A_MPEG/L3
Codec ID/Hint : MP3
Duration : 1h 45mn
Bit rate mode : Variable
Bit rate : 128 Kbps
Channel(s) : 2 channels
Sampling rate : 48.0 KHz
Compression mode : Lossy
Stream size : 97.0 MiB (14%)
Writing library : LAME3.90.
Language : English
Default : Yes
Forced : No

Source:
credit to original movie ripper DEPRiVED (Thanks)

IMDB Info:

Set in a dystopian future where corporate brands have created a disillusioned population, one man's effort to unlock the truth behind the conspiracy will lead to an epic battle with hidden forces that control the world.

Directors: Jamie Bradshaw, Aleksandr Dulerayn
Writers: Aleksandr Dulerayn, Jamie Bradshaw
Stars: Ed Stoppard, Leelee Sobieski and Jeffrey Tambor 

Genres: Action | Drama | Mystery | Sci-Fi | Thriller
 
http://www.imdb.com/title/tt1368440/

Screen Shot:
 
http://www.shotpix.com/images/19001763906023005162.png 
http://www.shotpix.com/images/49961153405809152571.png 
http://www.shotpix.com/images/47262739024252429977.png 
http://www.shotpix.com/images/67645659603652260012.png 
http://www.shotpix.com/images/98249983102653728361.png 
http://www.shotpix.com/images/21955464744202954722.png